<svg width="143" height="50" viewBox="0 0 143 50" fill="none" xmlns="http://www.w3.org/2000/svg">
<g clip-path="url(#clip0_602_4)">
<path d="M38.5415 19.3612C38.1591 19.23 37.7735 19.1085 37.385 18.9967C37.4502 18.7301 37.5103 18.4666 37.5637 18.2078C38.4392 13.9579 37.8668 10.534 35.9119 9.40671C34.0375 8.32601 30.9721 9.45289 27.8762 12.1472C27.5711 12.4132 27.2728 12.6869 26.9815 12.968C26.7865 12.7811 26.588 12.5978 26.3862 12.4182C23.1416 9.53738 19.8894 8.3232 17.9366 9.45373C16.0639 10.5378 15.5093 13.7565 16.2975 17.7843C16.376 18.1832 16.4645 18.58 16.5631 18.9744C16.1027 19.1052 15.6585 19.2445 15.2334 19.3927C11.4293 20.719 9 22.7974 9 24.9534C9 27.18 11.608 29.4135 15.5701 30.7677C15.8913 30.877 16.2152 30.9784 16.5415 31.0716C16.4355 31.4964 16.3414 31.924 16.2594 32.3541C15.5079 36.312 16.0947 39.4546 17.9624 40.5318C19.8914 41.6442 23.129 40.5009 26.2814 37.7451C26.537 37.5211 26.787 37.2907 27.0312 37.0542C27.3466 37.3585 27.6705 37.654 28.0024 37.9403C31.0561 40.568 34.072 41.629 35.9378 40.5489C37.865 39.4332 38.4914 36.0572 37.6782 31.9499C37.6141 31.6281 37.5423 31.3079 37.4627 30.9896C37.6901 30.9222 37.9133 30.8529 38.1308 30.7807C42.2498 29.4161 44.9298 27.2098 44.9298 24.9534C44.9298 22.7896 42.422 20.6971 38.5415 19.3612ZM37.6481 29.3239C37.4516 29.3889 37.2501 29.4516 37.0446 29.5127C36.5899 28.0731 35.9763 26.5424 35.2253 24.9608C35.9419 23.417 36.5319 21.9058 36.9739 20.4756C37.3415 20.582 37.6981 20.6942 38.042 20.8125C41.3669 21.9572 43.3949 23.6494 43.3949 24.9534C43.3949 26.3423 41.2046 28.1454 37.6481 29.3239ZM36.1725 32.248C36.5321 34.0641 36.5833 35.7062 36.3451 36.99C36.1312 38.1436 35.7009 38.9125 35.1687 39.2206C34.0365 39.876 31.615 39.0241 29.0035 36.7768C28.6948 36.5106 28.3935 36.2359 28.1001 35.953C29.1126 34.8457 30.1244 33.5586 31.1119 32.129C32.8488 31.9749 34.4898 31.7228 35.978 31.3788C36.0497 31.6669 36.1145 31.9568 36.1725 32.248ZM21.2493 39.1073C20.143 39.4979 19.2619 39.5092 18.7293 39.2021C17.5959 38.5485 17.1248 36.0251 17.7674 32.6404C17.8438 32.2404 17.9313 31.8427 18.0298 31.4476C19.5015 31.7732 21.1305 32.0073 22.8716 32.1485C23.8658 33.5473 24.9068 34.8331 25.9559 35.959C25.733 36.1747 25.5047 36.3849 25.2714 36.5894C23.8773 37.808 22.4804 38.6725 21.2493 39.1073ZM16.0667 29.3153C14.3147 28.7165 12.8678 27.9382 11.8761 27.089C10.9848 26.3259 10.535 25.5681 10.535 24.9534C10.535 23.645 12.4855 21.9763 15.7387 20.8421C16.1335 20.7045 16.5467 20.5747 16.9754 20.4529C17.4251 21.9153 18.0149 23.4445 18.7266 24.9907C18.0056 26.5598 17.4074 28.1134 16.9534 29.5931C16.6556 29.5078 16.3599 29.4152 16.0667 29.3153ZM17.8039 17.4894C17.1287 14.0386 17.5771 11.4355 18.7057 10.7822C19.9076 10.0863 22.5656 11.0784 25.3672 13.566C25.5498 13.7286 25.7296 13.8945 25.9062 14.0636C24.8623 15.1845 23.8309 16.4607 22.8455 17.8513C21.1556 18.008 19.5381 18.2595 18.0509 18.5965C17.9593 18.2296 17.877 17.8604 17.8039 17.4894ZM33.3025 21.3165C32.9512 20.7097 32.5869 20.1106 32.2098 19.5196C33.3562 19.6645 34.4546 19.857 35.486 20.0922C35.1764 21.0847 34.7905 22.1224 34.3361 23.1862C34.0041 22.5562 33.6594 21.9328 33.3025 21.3165ZM26.9822 15.1605C27.6901 15.9276 28.3992 16.7838 29.0966 17.713C27.6818 17.6461 26.2647 17.6459 24.85 17.7121C25.5481 16.7916 26.2632 15.9364 26.9822 15.1605ZM20.6213 21.327C20.2688 21.9383 19.9306 22.5578 19.607 23.185C19.1601 22.1249 18.7777 21.0825 18.4654 20.0759C19.4905 19.8466 20.5837 19.6591 21.7228 19.5167C21.3415 20.1114 20.9743 20.7151 20.6213 21.327ZM21.7555 30.4992C20.5787 30.3678 19.4691 30.19 18.4442 29.9669C18.7614 28.9423 19.1523 27.8777 19.6088 26.7949C19.9337 27.4225 20.2733 28.0424 20.6274 28.654C20.9914 29.2828 21.3684 29.8986 21.7555 30.4992ZM27.0246 34.8543C26.297 34.0695 25.5714 33.2011 24.8627 32.2672C25.5507 32.2942 26.2521 32.3079 26.9649 32.3079C27.6973 32.3079 28.4212 32.2915 29.1338 32.2598C28.4341 33.2105 27.7277 34.0801 27.0246 34.8543ZM34.3506 26.7396C34.8309 27.8344 35.2356 28.8933 35.5571 29.9003C34.5154 30.1381 33.3906 30.3295 32.2055 30.4717C32.5852 29.8697 32.953 29.2601 33.3085 28.6435C33.6699 28.0167 34.0174 27.3819 34.3506 26.7396ZM31.9789 27.8766C31.4347 28.8221 30.8598 29.7496 30.2553 30.6577C29.1602 30.7352 28.0627 30.7737 26.9649 30.7732C25.8467 30.7732 24.7592 30.7384 23.7119 30.6704C23.0915 29.7644 22.5057 28.8353 21.9556 27.885C21.4082 26.9398 20.8969 25.9741 20.4227 24.99C20.8957 24.0057 21.4055 23.0396 21.9512 22.0936L21.951 22.0937C22.4964 21.1475 23.0776 20.2224 23.6932 19.3203C24.7617 19.2394 25.8574 19.1973 26.9648 19.1973C28.0772 19.1973 29.1745 19.2398 30.2427 19.3212C30.8521 20.222 31.4295 21.144 31.9739 22.0854C32.5213 23.0293 33.0379 23.9908 33.5228 24.9683C33.0429 25.9557 32.5279 26.9258 31.9789 27.8766ZM35.1453 10.7364C36.3484 11.4303 36.8163 14.2285 36.0604 17.8979C36.0121 18.132 35.9579 18.3705 35.8989 18.6123C34.4081 18.2682 32.7895 18.0123 31.0947 17.8533C30.1075 16.4474 29.0845 15.1692 28.0575 14.0627C28.3267 13.8033 28.6022 13.5506 28.8839 13.3048C31.5366 10.9965 34.0157 10.085 35.1453 10.7364ZM26.9649 21.745C28.7368 21.745 30.1733 23.1814 30.1733 24.9534C30.1733 26.7253 28.7368 28.1618 26.9649 28.1618C25.193 28.1618 23.7565 26.7253 23.7565 24.9534C23.7565 23.1814 25.193 21.745 26.9649 21.745Z" fill="white"/>
<path d="M53.32 33.16C52.64 33.1867 52.0133 33.1 51.44 32.9C50.88 32.7133 50.42 32.4533 50.06 32.12C49.7133 31.7867 49.4933 31.4 49.4 30.96C49.3067 30.5067 49.3867 30.0467 49.64 29.58C49.9867 29.02 50.68 28.8533 51.72 29.08C52.5067 29.24 53.0467 29.3267 53.34 29.34C53.6467 29.3533 53.9067 29.3133 54.12 29.22C55.0933 28.9 55.64 28.5533 55.76 28.18C55.84 27.9 55.6667 27.5733 55.24 27.2C55.0667 27.04 54.8733 26.88 54.66 26.72C54.4467 26.56 54.2667 26.4 54.12 26.24C53.4533 25.7467 52.9267 25.18 52.54 24.54C52.1667 23.8867 52.0133 23.18 52.08 22.42C52.1467 21.66 52.2733 21.0333 52.46 20.54C52.6467 20.0333 52.88 19.5867 53.16 19.2C53.6533 18.52 54.2933 17.9667 55.08 17.54C55.9867 17.0733 56.7133 16.7733 57.26 16.64C58.34 16.4 59.4333 16.38 60.54 16.58C60.9133 16.6467 61.2333 16.7733 61.5 16.96C61.7667 17.1467 62.0333 17.34 62.3 17.54C62.7667 18.0067 62.88 18.48 62.64 18.96C62.5467 19.1733 62.4 19.3467 62.2 19.48C62 19.6133 61.7867 19.6867 61.56 19.7C61.5867 20.06 61.52 20.3267 61.36 20.5C61.0533 20.8067 60.52 21.0067 59.76 21.1C58.6667 21.02 57.9267 21.08 57.54 21.28C57.0867 21.52 56.92 22.04 57.04 22.84C57.0667 23.0133 57.1733 23.1933 57.36 23.38C57.56 23.5667 57.7867 23.7667 58.04 23.98C58.3067 24.1933 58.58 24.4333 58.86 24.7C59.1533 24.9667 59.4067 25.2733 59.62 25.62C60.3667 26.8467 60.3067 28.28 59.44 29.92C58.8 31.1467 57.7067 32.0667 56.16 32.68C55.36 33 54.4133 33.16 53.32 33.16ZM64.3752 23.34C65.2685 22.98 65.8685 22.9733 66.1752 23.32C66.3352 23.5067 66.4152 23.7667 66.4152 24.1V24.2C66.9085 23.6267 67.7685 23.1467 68.9952 22.76C70.2885 22.36 71.3552 22.2467 72.1952 22.42C73.2885 22.6467 73.9018 23.36 74.0352 24.56C74.1418 25.5733 73.9085 26.86 73.3352 28.42C73.1485 28.82 73.0018 29.1467 72.8952 29.4C72.8018 29.64 72.7152 29.86 72.6352 30.06C72.4618 30.4333 72.1885 30.88 71.8152 31.4C71.6018 31.8 71.2685 32.1067 70.8152 32.32C70.3752 32.5333 69.9352 32.6533 69.4952 32.68C69.0685 32.72 68.7152 32.6533 68.4352 32.48C68.1552 32.32 68.0752 32.06 68.1952 31.7C68.5018 30.8733 68.7552 30.12 68.9552 29.44C69.1552 28.76 69.3618 28.18 69.5752 27.7C69.7752 27.02 69.8018 26.5933 69.6552 26.42C69.5352 26.2867 69.3285 26.3067 69.0352 26.48C68.7818 26.64 68.6018 26.8267 68.4952 27.04C68.2552 27.2133 67.8018 27.9067 67.1352 29.12C66.9485 29.4533 66.7618 29.7867 66.5752 30.12C66.4018 30.44 66.2352 30.74 66.0752 31.02C65.9285 31.3 65.7952 31.5333 65.6752 31.72C65.5685 31.9067 65.4685 32.0267 65.3752 32.08C65.2952 32.1467 65.2218 32.1867 65.1552 32.2C65.1018 32.2267 65.0552 32.2533 65.0152 32.28C64.9752 32.3067 64.9418 32.3933 64.9152 32.54C64.8618 32.8467 64.5418 33.0733 63.9552 33.22C63.0085 33.46 62.1552 33.42 61.3952 33.1C61.1418 32.9933 60.9418 32.8467 60.7952 32.66C60.4885 32.0467 61.0152 29.96 62.3752 26.4C62.8552 25.1467 63.1685 24.4 63.3152 24.16C63.6485 23.6533 63.8618 23.3667 63.9552 23.3C64.0618 23.2333 64.2018 23.2467 64.3752 23.34ZM83.242 23.42L83.322 23.44C83.3487 23.44 83.362 23.4467 83.362 23.46C83.7087 23.3267 83.9954 23.4267 84.222 23.76C84.3687 23.9867 84.482 24.3333 84.562 24.8C84.5887 25.44 84.522 26.3267 84.362 27.46C84.0554 29.7533 83.8887 31.12 83.862 31.56C83.8887 32.0267 83.602 32.3467 83.002 32.52C82.482 32.68 81.962 32.6733 81.442 32.5C80.8954 32.3133 80.6687 32.0267 80.762 31.64C80.6554 31.84 80.5487 31.98 80.442 32.06C80.3354 32.1533 80.122 32.2733 79.802 32.42C79.4954 32.58 79.0554 32.7067 78.482 32.8C77.9087 32.9067 77.3354 32.9333 76.762 32.88C76.1887 32.84 75.662 32.7 75.182 32.46C74.7154 32.2333 74.402 31.8733 74.242 31.38C73.9354 30.42 73.9754 29.2 74.362 27.72C74.6287 26.7467 75.1087 25.8867 75.802 25.14C76.602 24.2867 77.5087 23.58 78.522 23.02C79.282 22.6067 80.0154 22.36 80.722 22.28C80.962 22.2533 81.1687 22.26 81.342 22.3C81.5287 22.34 81.722 22.38 81.922 22.42C82.1354 22.46 82.3354 22.52 82.522 22.6C83.002 22.8 83.242 23.0733 83.242 23.42ZM79.542 28.72C79.6354 28.5333 79.7087 28.3 79.762 28.02C79.8287 27.74 79.9154 27.4333 80.022 27.1C78.942 27.54 78.1154 28.08 77.542 28.72C76.9154 29.4267 76.9554 29.9133 77.662 30.18C78.2754 30.34 78.722 30.24 79.002 29.88C79.122 29.72 79.2287 29.52 79.322 29.28C79.4154 29.04 79.5287 28.7933 79.662 28.54C79.622 28.6067 79.582 28.6667 79.542 28.72ZM89.6247 23.82C90.2914 22.82 91.218 22.22 92.4047 22.02C92.7914 21.9533 93.2647 21.9067 93.8247 21.88C94.398 21.8533 94.8847 21.98 95.2847 22.26C95.698 22.54 96.0047 22.9 96.2047 23.34C96.5514 24.1267 96.6047 25.0933 96.3647 26.24C96.2314 26.8667 96.0714 27.56 95.8847 28.32C95.698 29.0667 95.418 29.8067 95.0447 30.54C94.6714 31.2733 94.1847 31.96 93.5847 32.6C92.9847 33.24 92.2047 33.7467 91.2447 34.12C90.6714 34.3467 90.1647 34.4267 89.7247 34.36C89.298 34.3067 88.978 34.22 88.7647 34.1C88.5514 33.98 88.4047 33.8067 88.3247 33.58C88.058 34.34 87.8047 35.1067 87.5647 35.88C87.338 36.6667 87.0314 37.4133 86.6447 38.12C86.378 38.2933 86.0514 38.42 85.6647 38.5C85.278 38.5933 84.898 38.5733 84.5247 38.44C84.1514 38.32 83.8847 38.0933 83.7247 37.76C83.5514 37.44 83.4647 37.0867 83.4647 36.7C83.4647 36.18 83.5914 35.5467 83.8447 34.8C84.218 33.6933 84.5247 32.84 84.7647 32.24C84.9914 31.64 85.138 31.2533 85.2047 31.08C85.2714 30.8933 85.338 30.7 85.4047 30.5C85.698 29.7267 85.9114 29.1 86.0447 28.62C86.1914 28.1267 86.3247 27.7 86.4447 27.34V27.32C86.578 26.7333 86.7847 26.1133 87.0647 25.46C87.358 24.7933 87.558 24.3867 87.6647 24.24C87.8914 24.0133 88.1247 23.8733 88.3647 23.82C88.6047 23.7667 88.878 23.7333 89.1847 23.72H89.2447L89.6247 23.82ZM91.1447 27.16C90.9847 27.44 90.718 27.7 90.3447 27.94L90.1647 28.36C90.0314 28.7067 89.9047 29.06 89.7847 29.42C89.6647 29.78 89.5314 30.1333 89.3847 30.48C89.518 30.6133 89.618 30.74 89.6847 30.86C90.4314 30.2067 91.1114 29.3467 91.7247 28.28C91.9647 27.84 92.118 27.4 92.1847 26.96C92.2647 26.52 92.2847 26.24 92.2447 26.12C92.2047 26 92.138 25.94 92.0447 25.94C91.9647 25.94 91.878 25.9667 91.7847 26.02C91.7047 26.06 91.638 26.1067 91.5847 26.16C91.5447 26.2 91.5514 26.2 91.6047 26.16C91.458 26.3333 91.3514 26.4867 91.2847 26.62C91.218 26.74 91.1714 26.92 91.1447 27.16ZM99.9025 23.34C100.796 22.98 101.396 22.9733 101.702 23.32C101.863 23.5067 101.943 23.7667 101.943 24.1V24.2C102.436 23.6267 103.296 23.1467 104.523 22.76C105.816 22.36 106.883 22.2467 107.723 22.42C108.816 22.6467 109.429 23.36 109.563 24.56C109.669 25.5733 109.436 26.86 108.863 28.42C108.676 28.82 108.529 29.1467 108.423 29.4C108.329 29.64 108.243 29.86 108.163 30.06C107.989 30.4333 107.716 30.88 107.343 31.4C107.129 31.8 106.796 32.1067 106.343 32.32C105.903 32.5333 105.463 32.6533 105.023 32.68C104.596 32.72 104.243 32.6533 103.963 32.48C103.683 32.32 103.603 32.06 103.723 31.7C104.029 30.8733 104.283 30.12 104.483 29.44C104.683 28.76 104.889 28.18 105.103 27.7C105.303 27.02 105.329 26.5933 105.183 26.42C105.063 26.2867 104.856 26.3067 104.563 26.48C104.309 26.64 104.129 26.8267 104.023 27.04C103.783 27.2133 103.329 27.9067 102.663 29.12C102.476 29.4533 102.289 29.7867 102.103 30.12C101.929 30.44 101.763 30.74 101.603 31.02C101.456 31.3 101.323 31.5333 101.203 31.72C101.096 31.9067 100.996 32.0267 100.903 32.08C100.823 32.1467 100.749 32.1867 100.683 32.2C100.629 32.2267 100.583 32.2533 100.543 32.28C100.503 32.3067 100.469 32.3933 100.443 32.54C100.389 32.8467 100.069 33.0733 99.4825 33.22C98.5358 33.46 97.6825 33.42 96.9225 33.1C96.6692 32.9933 96.4692 32.8467 96.3225 32.66C96.0158 32.0467 96.5425 29.96 97.9025 26.4C98.3825 25.1467 98.6958 24.4 98.8425 24.16C99.1758 23.6533 99.3892 23.3667 99.4825 23.3C99.5892 23.2333 99.7292 23.2467 99.9025 23.34ZM116.589 29.04C116.336 29.16 116.089 29.2533 115.849 29.32C115.609 29.3867 115.329 29.4533 115.009 29.52C114.169 29.6933 113.563 29.7933 113.189 29.82C113.229 29.9533 113.429 30.1133 113.789 30.3C114.029 30.34 114.289 30.3067 114.569 30.2C114.863 30.08 115.163 29.9733 115.469 29.88C115.789 29.7733 116.096 29.7133 116.389 29.7C116.696 29.6867 116.983 29.8 117.249 30.04C117.356 30.28 117.443 30.42 117.509 30.46C117.576 30.5 117.636 30.52 117.689 30.52C117.743 30.52 117.803 30.54 117.869 30.58C117.936 30.62 118.029 30.7733 118.149 31.04C118.283 31.3067 118.249 31.56 118.049 31.8C117.863 32.04 117.569 32.2467 117.169 32.42C116.769 32.5933 116.303 32.7333 115.769 32.84C115.236 32.9467 114.703 33.02 114.169 33.06C112.969 33.1533 112.056 33.06 111.429 32.78C110.523 32.4733 109.936 31.8667 109.669 30.96C109.323 29.76 109.516 28.36 110.249 26.76C110.583 26.0133 111.109 25.2133 111.829 24.36C112.456 23.6133 113.156 23.0733 113.929 22.74C114.823 22.3533 115.756 22.1733 116.729 22.2C117.769 22.2267 118.489 22.68 118.889 23.56C119.089 24.0267 119.129 24.68 119.009 25.52C118.796 26.6133 118.516 27.3867 118.169 27.84C117.823 28.28 117.296 28.68 116.589 29.04ZM115.429 25.88C114.723 25.7333 114.169 26.1333 113.769 27.08C113.649 27.3333 113.556 27.6 113.489 27.88C113.943 27.9333 114.423 27.68 114.929 27.12C115.116 26.8933 115.256 26.6667 115.349 26.44C115.443 26.2 115.469 26.0133 115.429 25.88ZM128.758 24.7C128.664 25.4733 128.591 25.9867 128.538 26.24C128.484 26.48 128.444 26.7 128.418 26.9C128.404 27.0067 128.431 27.0267 128.498 26.96C128.578 26.8933 128.678 26.7733 128.798 26.6C128.931 26.4133 129.078 26.1933 129.238 25.94C129.398 25.6867 129.551 25.4267 129.698 25.16C130.031 24.52 130.224 24.0333 130.278 23.7C130.264 23.6467 130.258 23.6 130.258 23.56C130.271 23.5067 130.258 23.4067 130.218 23.26C130.191 23.1 130.204 22.9067 130.258 22.68C130.311 22.4533 130.411 22.26 130.558 22.1C130.878 21.7533 131.351 21.62 131.978 21.7C132.538 21.7267 132.918 21.7933 133.118 21.9C133.478 22.1 133.811 22.46 134.118 22.98C134.264 23.3 134.178 24.0267 133.858 25.16C133.471 26.5867 132.844 28.2133 131.978 30.04C131.738 30.52 131.511 30.9267 131.298 31.26C131.084 31.5933 130.778 31.8733 130.378 32.1C129.978 32.3267 129.551 32.4867 129.098 32.58C128.098 32.78 127.251 32.6867 126.558 32.3C126.451 32.2067 126.344 32.1267 126.238 32.06C126.131 31.9933 126.004 31.8667 125.858 31.68C125.391 31.0533 125.124 30.18 125.058 29.06C124.858 29.74 124.618 30.28 124.338 30.68C123.911 31.24 123.391 31.8 122.778 32.36C122.124 32.7467 121.378 32.9067 120.538 32.84C120.258 32.8267 120.011 32.7667 119.798 32.66C119.611 32.5 119.478 32.36 119.398 32.24C119.318 32.1333 119.278 31.9067 119.278 31.56C119.278 30.9467 119.438 30.08 119.758 28.96C119.838 28.6667 119.931 28.3133 120.038 27.9C120.158 27.4867 120.271 27.06 120.378 26.62C120.671 25.3267 120.831 24.52 120.858 24.2C120.898 23.8667 120.931 23.64 120.958 23.52C121.078 23.2933 121.264 23.12 121.518 23C121.771 22.88 122.031 22.82 122.298 22.82C122.578 22.82 122.831 22.8867 123.058 23.02C123.284 23.1533 123.438 23.36 123.518 23.64H123.538V23.66C123.938 24.4067 124.138 25.1667 124.138 25.94C124.498 25.46 124.811 25.1067 125.078 24.88C125.358 24.64 125.631 24.4667 125.898 24.36C126.298 24.2133 126.598 24.1267 126.798 24.1C127.011 24.0733 127.238 24.04 127.478 24C127.718 23.9467 127.951 23.92 128.178 23.92C128.698 23.9467 128.891 24.2067 128.758 24.7ZM140.678 32.48C140.158 32.9067 139.538 33.2267 138.818 33.44C138.111 33.6667 137.398 33.7867 136.678 33.8C135.958 33.8133 135.284 33.7267 134.658 33.54C134.031 33.3533 133.538 33.06 133.177 32.66C132.751 32.2067 132.604 31.7533 132.737 31.3C132.804 31.1133 132.924 30.9667 133.097 30.86C133.257 30.7533 133.457 30.7267 133.698 30.78C133.858 30.7933 133.971 30.7533 134.038 30.66C134.118 30.5533 134.184 30.44 134.238 30.32C134.291 30.1867 134.351 30.0667 134.418 29.96C134.484 29.84 134.591 29.78 134.738 29.78C137.084 29.8467 138.304 29.64 138.398 29.16C138.238 29.0133 138.038 28.8867 137.798 28.78C137.571 28.6733 137.338 28.5667 137.098 28.46C136.511 28.1933 136.118 27.9 135.918 27.58C135.664 27.4467 135.471 27.1267 135.338 26.62C135.271 26.3933 135.238 26.16 135.238 25.92C135.238 25.68 135.278 25.46 135.358 25.26C135.318 24.74 135.638 24.1667 136.318 23.54C136.504 23.3667 136.738 23.18 137.018 22.98C137.298 22.78 137.718 22.5867 138.278 22.4C138.838 22.2133 139.391 22.08 139.938 22C140.498 21.9067 140.998 21.8733 141.438 21.9C141.891 21.9267 142.211 22.0333 142.398 22.22C142.598 22.4067 142.751 22.64 142.858 22.92C142.978 23.2 143.018 23.4733 142.978 23.74C142.871 24.34 142.378 24.7533 141.498 24.98C140.391 25.14 139.858 25.2867 139.898 25.42C139.898 25.4467 139.851 25.48 139.758 25.52C140.784 26.2267 141.498 26.92 141.898 27.6C142.444 28.5333 142.524 29.5733 142.138 30.72C142.204 31.0933 141.871 31.56 141.138 32.12C140.964 32.2533 140.811 32.3733 140.678 32.48Z" fill="#EEE40A"/>
</g>
<defs>
<clipPath id="clip0_602_4">
<rect width="143" height="50" fill="white"/>
</clipPath>
</defs>
</svg>
